<svg xmlns="http://www.w3.org/2000/svg" viewBox="0 0 323.41 81.09"><defs><style>.cls-1{stroke:#fff;stroke-width:2px;}.cls-1,.cls-3{stroke-miterlimit:10;}.cls-2,.cls-3{fill:#fff;}.cls-3{stroke:#000;}</style></defs><title>アセット 1</title><g id="レイヤー_2" data-name="レイヤー 2"><g id="レイヤー_1-2" data-name="レイヤー 1"><path d="M42.81,0H51.5V60.71H42.81V34.29H8.69V60.71H0V0H8.69V26.25H42.81Z"/><path d="M88.91,36.68v17c0,1.36.47,2,1.39,2s2.45-.71,4.48-2.13v4.83a26,26,0,0,1-4.32,2.36A9.43,9.43,0,0,1,87,61.4c-3.39,0-5.38-1.33-6-4a17.26,17.26,0,0,1-10.74,3.91,9.47,9.47,0,0,1-9.73-9.69,9.72,9.72,0,0,1,2.72-6.76A18.43,18.43,0,0,1,71,40.15l10.12-3.47V34.55q0-7.21-7.21-7.22-6.48,0-12.6,6.7V25.38Q65.93,20,74.57,20,81.05,20,85,23.34a11.46,11.46,0,0,1,3.67,6.49A53.39,53.39,0,0,1,88.91,36.68ZM81.13,52.8V40.94l-5.3,2a17.74,17.74,0,0,0-5.71,3.24,5.83,5.83,0,0,0-.09,8.1,5.63,5.63,0,0,0,4.11,1.57A9.92,9.92,0,0,0,81.13,52.8Z"/><path d="M126.32,20.73h8.87L106.87,81.09H98l13.57-29L96.17,20.73h9L116,43.31Z"/><path d="M165.88,36.68v17c0,1.36.46,2,1.39,2s2.44-.71,4.47-2.13v4.83a25.62,25.62,0,0,1-4.32,2.36,9.42,9.42,0,0,1-3.41.63q-5.08,0-6-4a17.25,17.25,0,0,1-10.73,3.91,9.48,9.48,0,0,1-7-2.76,9.38,9.38,0,0,1-2.78-6.93,9.76,9.76,0,0,1,2.72-6.76A18.43,18.43,0,0,1,148,40.15l10.13-3.47V34.55q0-7.21-7.22-7.22-6.47,0-12.6,6.7V25.38Q142.89,20,151.53,20q6.48,0,10.39,3.39a11.46,11.46,0,0,1,3.67,6.49A52.81,52.81,0,0,1,165.88,36.68ZM158.1,52.8V40.94l-5.31,2a17.86,17.86,0,0,0-5.71,3.24,5.86,5.86,0,0,0-.09,8.1,5.63,5.63,0,0,0,4.11,1.57A10,10,0,0,0,158.1,52.8Z"/><path d="M173.13,27.07,188,12.47v8.26h12.64v7.13H188V47.42q0,6.86,5.69,6.86a17.56,17.56,0,0,0,9-2.83v7.39a20,20,0,0,1-10,2.56,13.18,13.18,0,0,1-9-3.17,9.07,9.07,0,0,1-1.87-2.15A11.46,11.46,0,0,1,180.59,53a34.59,34.59,0,0,1-.5-7.36V27.86h-7Z"/><path d="M270.22,0h8.69V60.71h-8.69Z"/><path d="M314.72,0h8.69V60.71h-8.69Z"/><circle cx="231.45" cy="40.9" r="22.19"/><circle class="cls-1" cx="231.45" cy="40.9" r="6.19"/><circle class="cls-2" cx="231.45" cy="40.9" r="3.01"/><path class="cls-3" d="M231.22,19.8c3.61,0,6.71.52,9.8,2.58l-6.19,11.36a6,6,0,0,0-3.61-1Z"/></g></g></svg>